<?xml version="1.0" encoding="utf-8"?>
<!-- Generator: Adobe Illustrator 26.0.2, SVG Export Plug-In . SVG Version: 6.00 Build 0)  -->
<svg version="1.1" id="Layer_1" xmlns="http://www.w3.org/2000/svg" xmlns:xlink="http://www.w3.org/1999/xlink" x="0px" y="0px"
	 viewBox="0 0 1903 347.5" style="enable-background:new 0 0 1903 347.5;" xml:space="preserve">
<style type="text/css">
	.st0{fill:#A7C947;}
	.st1{fill-rule:evenodd;clip-rule:evenodd;fill:#041C39;stroke:#000000;stroke-width:0.7087;stroke-linecap:round;}
	.st2{fill:#77577E;}
	.st3{fill:#FFFFFF;}
</style>
<g>
	<g id="svg_9">
		<g id="svg_1" transform="matrix(1.4424 0 0 1.23291 -45.8041 -52.9528)">
			<g id="svg_2">
				<g id="svg_3">
					<path id="svg_4" class="st0" d="M141.8,158.9c1.3-3.4,1.9-7,1.9-10.6c0-2.4-0.3-4.8-1-7.2l0,0c-0.1-0.2-0.1-0.4-0.2-0.6
						l-0.1-0.2c0-0.1-0.1-0.2-0.1-0.4c0,0,0-0.1-0.1-0.2c-1.2-4.7-4.2-8.9-7.6-13.9c-4.2-6-8.9-12.9-11.4-22.1
						c-2.4-8.9-1.8-17.3-1.3-24.6c0.4-6.3,0.8-12.2-0.6-17.7l0,0v-0.1c0-0.1-0.1-0.2-0.1-0.4l-0.1-0.2c0-0.2-0.1-0.4-0.1-0.6
						c-0.1-0.4-0.2-0.8-0.3-1.2c0,0,0-0.1-0.1-0.2c-0.1-0.3-0.2-0.7-0.3-1l0,0c-1.9-5.2-5.3-9.5-9.6-12.1c-4.4-2.7-9.2-3.5-14-2.3
						l0,0c-0.3,0.1-0.6,0.2-0.9,0.3h-0.1c-0.3,0.1-0.7,0.2-1,0.4c-5.4,2-9.7,6.3-12.3,12.2c-0.3,0.7-0.6,1.5-0.9,2.2
						c-1,3-1.5,6.2-1.5,9.4c0,2.4,0.3,4.8,1,7.2l0,0c0.1,0.2,0.1,0.4,0.2,0.6l0.1,0.2v0.1c0,0,0,0.1,0.1,0.2s0,0.1,0,0.1v0.1
						c1.2,4.7,4.2,8.9,7.6,13.9c4.2,6,8.9,12.9,11.4,22.1s1.9,18.1,1.4,26c-0.4,6.3-0.7,11.8,0.5,16.4l0,0v0.1
						c0,0.1,0.1,0.2,0.1,0.4v0.2c0,0.2,0.1,0.4,0.1,0.6c0.1,0.3,0.2,0.7,0.3,1c3.1,10,11.1,16.3,19.8,16.3c2.1,0,4.2-0.4,6.3-1.2
						c5.4-2,9.7-6.3,12.3-12.2C141.5,159.7,141.6,159.3,141.8,158.9L141.8,158.9L141.8,158.9z"/>
					<path id="svg_5" class="st0" d="M204.9,96.6c-3.6-6.6-9.1-11.2-15.6-12.9c-13.4-3.5-26.8,6.5-29.7,22.4c0,0.2-0.1,0.5-0.1,0.7
						v0.2c0,0.2-0.1,0.3-0.1,0.5l0,0v0.1l0,0c-1.1,5.7-0.2,12.1,0.8,19.6c1.3,9.2,2.7,19.6,0.6,30.8c-2.1,11.3-7.2,20-11.6,27.8
						c-3.6,6.2-6.7,11.6-7.7,17.2l0,0v0.1c0,0.1-0.1,0.3-0.1,0.4l-0.1,0.2c0,0.2-0.1,0.5-0.1,0.7c-1.4,7.7-0.3,15.5,3.3,22.1
						s9.1,11.2,15.6,12.9c1.8,0.5,3.6,0.7,5.4,0.7c4.7,0,9.3-1.6,13.4-4.6c1.4-1.1,2.7-2.2,3.9-3.6c3.5-4,6-9.1,7.1-14.8l0,0
						c0-0.2,0.1-0.5,0.1-0.7v-0.2c0-0.2,0.1-0.3,0.1-0.5l0,0v-0.1l0,0c1.1-5.7,0.2-12.1-0.8-19.6c-1.3-9.2-2.7-19.6-0.6-30.8
						c2.1-10.9,6.9-19.1,11.1-26.3c3.6-6.2,7-12,8.3-18.6l0,0v-0.1c0-0.1,0.1-0.3,0.1-0.4l0.1-0.2c0-0.2,0.1-0.5,0.1-0.7
						C209.7,111.1,208.5,103.2,204.9,96.6L204.9,96.6L204.9,96.6z"/>
					<path id="svg_6" class="st0" d="M64.6,107c-5.3-3.3-11.4-3.9-17.1-1.8s-10.4,6.7-13.1,13c-2.8,6.3-3.3,13.4-1.5,20.1
						c1.8,6.7,5.7,12.2,11.1,15.5c3.2,2,6.8,3,10.3,3c2.3,0,4.6-0.4,6.8-1.2c5.7-2.1,10.4-6.7,13.1-13c2.8-6.3,3.3-13.4,1.5-20.1
						C73.8,115.8,69.9,110.3,64.6,107L64.6,107z"/>
				</g>
			</g>
		</g>
	</g>
	<g>
		<g id="svg_15">
			<path id="svg_10" vector-effect="non-scaling-stroke" class="st1" d="M1460.8,66.4l-2.8,4.5c-0.2,0.3-0.4,0.6-0.7,0.9
				c-0.6,0.5-1.4,0.8-2.3,0.8c-1,0-2.3-0.6-3.9-1.8c-0.6-0.5-1.3-0.9-1.9-1.4c-0.7-0.5-1.5-1-2.4-1.5c-0.7-0.4-1.4-0.8-2.1-1.2
				c-2.7-1.5-6.1-2.8-10.1-4.1c-1.9-0.6-3.8-1-5.7-1.3c-1.9-0.3-3.9-0.5-6.1-0.6c-1,0-2.1-0.1-3.1-0.1c-5.9,0-11.1,0.7-15.6,2.2
				c-2.4,0.8-4.7,1.7-6.9,2.9c-1.6,0.9-3.1,1.9-4.5,3c-3,2.5-5.3,5.4-6.9,8.7c-1.6,3.3-2.4,6.7-2.4,10.4c0,1.7,0.2,3.3,0.5,5
				c0.4,2,1.1,3.8,2.1,5.4c0.3,0.5,0.6,0.9,0.9,1.4c2.2,2.9,5.1,5.4,8.4,7.4c0.3,0.2,0.6,0.3,0.9,0.5c2.8,1.5,5.7,2.9,8.7,4
				c1.5,0.5,2.9,1,4.4,1.5c4.9,1.5,9.9,2.9,15.1,4.4s10.2,3,15.1,4.8c3.8,1.4,7.5,3.1,10.9,5.1c0.8,0.5,1.5,0.9,2.2,1.4
				c3.8,2.6,6.9,5.9,9.3,9.7c1.2,2,2.1,4.1,2.6,6.2c0.5,1.9,0.8,4,0.9,6.2c0,0.6,0,1.3,0,1.9c0,5.2-1,10.4-3,15.3
				c-0.2,0.4-0.3,0.8-0.5,1.2c-2.3,5.2-5.8,9.6-10.2,13.5c-3.7,3.1-7.9,5.7-12.6,7.6c-1.3,0.5-2.5,1-3.8,1.4
				c-4,1.3-8.2,2.3-12.5,2.8c-3.2,0.4-6.4,0.6-9.7,0.5c-4.4,0-8.9-0.3-13.2-0.9c-5.3-0.8-10.2-2.1-14.6-4
				c-7.8-3.3-14.6-7.7-20.4-13.4l3.2-4.3c0.3-0.3,0.6-0.6,1-0.8c0.6-0.4,1.4-0.7,2.3-0.7c0.2,0,0.5,0,0.7,0.1c0.6,0.2,1.2,0.5,2,1.1
				c1.1,0.8,2.4,1.8,3.9,2.9c0.7,0.5,1.5,1.1,2.2,1.6c0.8,0.5,1.6,1.1,2.5,1.6c0.3,0.2,0.6,0.4,0.9,0.6c1.3,0.8,2.6,1.5,4,2.2
				c1.2,0.6,2.3,1.1,3.5,1.6c1.6,0.6,3.2,1.2,4.9,1.7c1.6,0.5,3.3,0.9,4.9,1.2c3.7,0.8,7.9,1.2,12.6,1.2c6.5,0,12.2-0.8,17.3-2.5
				c2.9-0.9,5.6-2.2,8.2-3.6c1.7-1,3.2-2,4.7-3.2c3.5-2.9,6.2-6.3,8-10.3c1.8-3.9,2.7-8.1,2.8-12.2c0-0.2,0-0.4,0-0.5
				c0-1.7-0.2-3.5-0.5-5.2c-0.6-2.7-1.6-5-3-7c-2.3-3.2-5.4-5.9-9.3-8c-2.8-1.5-5.7-2.8-8.7-3.9c-1.5-0.5-2.9-1-4.4-1.5
				c-4.9-1.4-9.9-2.9-15.1-4.2c-5.2-1.4-10.2-2.9-15.1-4.6s-9.3-3.9-13.1-6.6c-3.9-2.7-7.1-6.1-9.3-9.9l0,0c-2.3-4-3.5-9-3.5-14.9
				c0-4.7,1-9.2,3.1-13.5s5.1-8.2,9.1-11.5c2.9-2.3,6.1-4.3,9.6-5.9c1.7-0.8,3.5-1.5,5.2-2.1c3.7-1.2,7.5-2.1,11.4-2.5
				c2.9-0.3,5.8-0.5,8.8-0.5c8.5,0,16.1,1.2,22.8,3.5C1449.1,58.1,1455.3,61.7,1460.8,66.4L1460.8,66.4z"/>
			<path id="svg_11" vector-effect="non-scaling-stroke" class="st1" d="M1579.5,140.6h-83v1.9c0,3.2,0.2,6.3,0.6,9.5
				c0.5,3.6,1.3,6.9,2.4,10c0.9,2.7,2.1,5.2,3.6,7.7c1.4,2.3,3,4.4,4.9,6.4c3.7,3.8,8.2,6.6,13.4,8.5c3.8,1.4,7.8,2.2,12,2.6
				c1.9,0.2,3.7,0.3,5.6,0.3c5,0,9.5-0.4,13.4-1.2c0.6-0.1,1.1-0.2,1.6-0.4c4.2-1.1,7.8-2.3,10.7-3.6c0.9-0.4,1.9-0.9,2.8-1.3
				c0.8-0.4,1.6-0.8,2.2-1.2s1.3-0.7,1.9-1.1c1.5-1,2.7-1.5,3.5-1.6c0.1,0,0.1,0,0.2,0c0.3,0,0.7,0,1,0.1c0.5,0.2,1,0.5,1.3,0.8
				l3,3.2c-1.8,2-4.3,3.8-7.3,5.5c-2.4,1.3-4.8,2.5-7.4,3.4c-0.9,0.3-1.8,0.7-2.7,1c-3.1,1-6.2,1.8-9.4,2.4
				c-0.9,0.2-1.7,0.3-2.6,0.5c-4.3,0.7-8.6,1.1-12.9,1.1c-4.5,0-8.9-0.4-13.3-1.2c-2.8-0.6-5.6-1.3-8.2-2.3
				c-6.5-2.3-12-5.7-16.6-10.2c-3.3-3.2-6-6.8-8-10.6c-1-1.9-1.9-3.8-2.7-5.8c-1.4-3.6-2.4-7.3-2.9-11.1c-0.6-3.7-0.8-7.4-0.8-11.1
				c0-7,1.2-13.5,3.5-19.5s5.7-11.1,10.2-15.4c4.4-4.3,9.9-7.7,16.3-10.1c4.4-1.6,9-2.7,13.8-3.2c2.7-0.3,5.4-0.4,8.1-0.4
				c4.3,0,8.5,0.4,12.7,1.4c1.8,0.4,3.6,0.9,5.3,1.5c5.5,1.9,10.3,4.7,14.3,8.3c3,2.7,5.5,5.8,7.3,9.2c0.8,1.4,1.5,2.8,2.1,4.3
				c1.3,3.1,2.2,6.3,2.7,9.6c0.5,2.9,0.7,5.8,0.7,8.8c0,1.4-0.3,2.4-0.8,3c-0.3,0.3-0.7,0.5-1.1,0.6
				C1580.4,140.5,1580,140.6,1579.5,140.6L1579.5,140.6z M1497,134.5h75.7c0-5.3-0.8-10-2.5-14.2c-0.9-2.2-2.1-4.4-3.5-6.4
				c-1.1-1.5-2.3-2.9-3.6-4.2c-3.1-2.9-6.8-5.1-11.1-6.7c-3.3-1.2-6.8-1.9-10.4-2.2c-1.3-0.1-2.6-0.2-4-0.2c-2.9,0-5.8,0.2-8.7,0.6
				c-2.5,0.4-4.9,1-7.3,1.7c-4.7,1.6-8.8,3.8-12.2,6.8c-3,2.6-5.4,5.5-7.3,8.8c-0.4,0.6-0.7,1.3-1,1.9c-1.4,2.8-2.5,5.8-3.2,8.8
				C1497.5,131.1,1497.2,132.8,1497,134.5L1497,134.5z"/>
			<path id="svg_12" vector-effect="non-scaling-stroke" class="st1" d="M1623.2,193.5h-11V95.4h5.8c1.2,0,2.1,0.2,2.7,0.6l0.1,0.1
				c0.6,0.5,0.9,1.2,1,2.4l0.9,20.7c1.5-3.3,3.3-6.4,5.5-9.4c2.7-3.7,5.8-6.8,9.3-9.3l0,0c5.2-3.8,11.8-6.1,18.6-6.6
				c1.4-0.1,2.7-0.2,4.1-0.2c1.9,0,3.7,0.1,5.6,0.3c1.3,0.1,2.7,0.4,4,0.6c2.9,0.6,5.7,1.5,8.3,2.7l-1.5,6.5
				c-0.1,0.3-0.2,0.5-0.3,0.7c-0.3,0.4-0.7,0.7-1.3,0.8c-0.2,0-0.4,0.1-0.7,0.1c-0.4,0-0.9-0.1-1.6-0.3c-0.1,0-0.3-0.1-0.4-0.1
				c-0.8-0.3-1.9-0.6-3.2-0.9l0,0c-0.5-0.1-1-0.3-1.6-0.4s-1.2-0.2-1.9-0.3c-0.4-0.1-0.8-0.1-1.3-0.2c-1.7-0.2-3.7-0.4-5.9-0.4
				c-0.2,0-0.3,0-0.5,0c-3.4,0-6.9,0.4-10.2,1.2c-4.2,1.1-8.1,3-11.2,5.7c-2.6,2.2-4.8,4.6-6.7,7.2c-2.6,3.6-4.9,7.8-6.9,12.7
				L1623.2,193.5L1623.2,193.5z"/>
			<path id="svg_13" vector-effect="non-scaling-stroke" class="st1" d="M1794.7,95.4l-48.5,98.1h-9.7L1688,95.4h8.7
				c0.4,0,0.7,0,1.1,0.1c0.6,0.1,1.1,0.3,1.5,0.6c0.3,0.2,0.6,0.5,0.9,0.8c0.2,0.2,0.4,0.5,0.5,0.8l37.9,77.4
				c0.4,0.8,0.8,1.6,1.1,2.5c0.2,0.6,0.4,1.2,0.6,1.9l1.2,4.1c0.4-1.4,0.8-2.8,1.2-4.2c0.4-1.4,1-2.8,1.7-4.3l38.1-77.4
				c0.2-0.4,0.4-0.7,0.7-1c0.2-0.3,0.5-0.5,0.8-0.7c0.5-0.3,1.2-0.6,1.8-0.6c0.2,0,0.3,0,0.5,0L1794.7,95.4L1794.7,95.4z"/>
			<path id="svg_14" vector-effect="non-scaling-stroke" class="st1" d="M1899.6,140.6h-83v1.9c0,3.2,0.2,6.3,0.6,9.5
				c0.5,3.6,1.3,6.9,2.4,10c0.9,2.7,2.1,5.2,3.6,7.7c1.4,2.3,3,4.4,4.9,6.4c3.7,3.8,8.2,6.6,13.4,8.5c3.8,1.4,7.8,2.2,12,2.6
				c1.9,0.2,3.7,0.3,5.6,0.3c5,0,9.5-0.4,13.4-1.2c0.6-0.1,1.1-0.2,1.6-0.4c4.2-1.1,7.8-2.3,10.7-3.6c0.9-0.4,1.9-0.9,2.8-1.3
				c0.8-0.4,1.6-0.8,2.2-1.2s1.3-0.7,1.9-1.1c1.5-1,2.7-1.5,3.5-1.6c0.1,0,0.1,0,0.2,0c0.3,0,0.7,0,1,0.1c0.5,0.2,1,0.5,1.3,0.8
				l3,3.2c-1.8,2-4.3,3.8-7.3,5.5c-2.4,1.3-4.8,2.5-7.4,3.4c-0.9,0.3-1.8,0.7-2.7,1c-3.1,1-6.2,1.8-9.4,2.4
				c-0.9,0.2-1.7,0.3-2.6,0.5c-4.3,0.7-8.6,1.1-12.9,1.1c-4.5,0-8.9-0.4-13.3-1.2c-2.8-0.6-5.6-1.3-8.2-2.3
				c-6.5-2.3-12-5.7-16.6-10.2c-3.3-3.2-6-6.8-8-10.6c-1-1.9-1.9-3.8-2.7-5.8c-1.4-3.6-2.4-7.3-2.9-11.1c-0.6-3.7-0.8-7.4-0.8-11.1
				c0-7,1.2-13.5,3.5-19.5s5.7-11.1,10.2-15.4c4.4-4.3,9.9-7.7,16.3-10.1c4.4-1.6,9-2.7,13.8-3.2c2.7-0.3,5.4-0.4,8.1-0.4
				c4.3,0,8.5,0.4,12.7,1.4c1.8,0.4,3.6,0.9,5.3,1.5c5.5,1.9,10.3,4.7,14.3,8.3c3,2.7,5.5,5.8,7.3,9.2c0.8,1.4,1.5,2.8,2.1,4.3
				c1.3,3.1,2.2,6.3,2.7,9.6c0.5,2.9,0.7,5.8,0.7,8.8c0,1.4-0.3,2.4-0.8,3c-0.3,0.3-0.7,0.5-1.1,0.6
				C1900.4,140.5,1900,140.6,1899.6,140.6L1899.6,140.6z M1817,134.5h75.7c0-5.3-0.8-10-2.5-14.2c-0.9-2.2-2.1-4.4-3.5-6.4
				c-1.1-1.5-2.3-2.9-3.6-4.2c-3.1-2.9-6.8-5.1-11.1-6.7c-3.3-1.2-6.8-1.9-10.4-2.2c-1.3-0.1-2.6-0.2-4-0.2c-2.9,0-5.8,0.2-8.7,0.6
				c-2.5,0.4-4.9,1-7.3,1.7c-4.7,1.6-8.8,3.8-12.2,6.8c-3,2.6-5.4,5.5-7.3,8.8c-0.4,0.6-0.7,1.3-1,1.9c-1.4,2.8-2.5,5.8-3.2,8.8
				C1817.6,131.1,1817.2,132.8,1817,134.5L1817,134.5z"/>
		</g>
	</g>
</g>
<path class="st2" d="M1860,269.2v25.4c0,26.9-25.5,48.6-57,48.6h-315.8c-31.5,0-57-21.8-57-48.6v-25.4c0-26.9,25.5-48.6,57-48.6
	H1803C1834.5,220.6,1860,242.3,1860,269.2z"/>
<g>
	<g>
		<path class="st3" d="M1492.1,242.7h32.5c19.7,0,35,4.1,35,18c0,6.5-4.8,13.5-12.5,15.7v0.4c9.7,1.9,17.2,7.4,17.2,17.1
			c0,14.8-16.3,21.4-37,21.4h-35.2V242.7z M1523.6,271.9c10.4,0,15-3.4,15-8.7c0-5.6-4.9-7.8-14.9-7.8h-10.2v16.4h10.1V271.9z
			 M1525.6,302.7c11.7,0,17.8-3.2,17.8-9.8c0-6.4-5.9-9-17.8-9h-12v18.8H1525.6z"/>
		<path class="st3" d="M1580.3,242.7h59.5v13.8h-38.1v14.6h32.4v13.8h-32.4v16.7h39.5v13.8h-61L1580.3,242.7L1580.3,242.7z"/>
		<path class="st3" d="M1678.8,256.5h-26.2v-13.8h73.8v13.8h-26.2v58.9h-21.5L1678.8,256.5L1678.8,256.5z"/>
		<path class="st3" d="M1758.9,242.7h25.7l29.8,72.7h-22.7l-12.4-36.8c-2.6-7.3-5.2-15.9-7.7-23.4h-0.6c-2.3,7.7-4.8,16.2-7.5,23.4
			l-12.5,36.8h-22L1758.9,242.7z M1748.8,285.3h45.7v12.8h-45.7V285.3z"/>
	</g>
</g>
<g>
	<path d="M445.7,85.2c-0.1-5.8-1.7-11-5-15.8c-2.7-3.8-6.3-6.4-10.5-8.4c-8.3-3.8-17.2-4.4-26.3-3.9c-6.9,0.4-13.7,1.7-19.7,5.1
		c-10.1,5.7-13.8,17.7-8.3,27.4c1.3,2.3,3.5,4.2,5.7,5.8c6.2,4.6,13.5,6.9,20.9,9c4.4,1.3,8.9,2.1,13.2,3.5c10.9,3.5,22.1,6.2,32,12
		c3.4,2,6.9,4.2,9.7,6.8c8.1,7.5,11.9,16.7,11.2,27.4c-1,16-10.8,25.8-25.7,31.8c-18.9,7.6-38.4,7.8-57.8,2.8
		c-10.3-2.7-20.1-7-27.9-14.4c-7-6.6-11.2-14.6-12-24c-0.1-1.1,0-2.1,0-3.3c7.5,0,14.9,0,22.3,0c0.3,2.2,0.4,4.3,0.9,6.4
		c1.3,5.7,4.9,9.9,9.4,13.7c5.9,4.9,13,6.8,20.4,7.9c9.9,1.4,19.8,1.3,29.5-1.4c8.2-2.3,14.7-6.8,17.2-14.7
		c2.8-8.7,0.8-18.1-8.7-23.5c-2.2-1.2-4.5-2.4-6.8-3.4c-9.4-4.1-19.4-6.7-29.4-9.2c-11-2.8-21.8-6.2-31.2-12.3
		c-7.1-4.6-13.4-10.1-16.3-18c-4.9-13.5-1.1-28.7,12.3-38.9c9.8-7.5,21.1-11,33.4-12.2c12.2-1.2,24.3-0.6,36,3.3
		c12.5,4.3,23,11.2,29.4,22.6c3.1,5.5,4.8,11.5,4.6,17.9C460.7,85.2,453.3,85.2,445.7,85.2z"/>
	<path d="M1234.6,176.9c-0.3,4-0.7,7.9-1,12c-6.6,0-13.1,0-19.8,0c0-49.6,0-99.1,0-148.8c7.2,0,14.2,0,21.5,0c0,17.1,0,34.1,0,51.5
		c0.6-0.5,1-0.7,1.2-0.9c6.4-6.9,14.7-10.6,24.2-12c10.3-1.6,20.6-1.4,30.2,2.6c4.4,1.8,8.8,4.2,12.3,7.2c7.2,6.2,11.9,14,14.5,23
		c3.4,11.8,3.8,23.8,2.2,35.9c-1.3,9.6-4.7,18.6-10.7,26.5c-4.8,6.3-11.3,10.6-18.8,13.8c-11.6,4.9-23.6,4.5-35.4,1.3
		c-7-1.9-13.3-5.4-18.4-10.6c-0.5-0.5-1-0.9-1.4-1.3C1235,176.8,1234.9,176.9,1234.6,176.9z M1235.3,134.3c0,7.3,0,14.5,0,21.8
		c0,0.7,0,1.6,0.4,2.2c3.4,5.4,7.6,10,13.6,13c6.7,3.4,14,4.1,21.4,3.4c6.6-0.7,12.4-3,17.1-7.7c3.7-3.7,6.5-8,8.2-12.8
		c3-8.8,3.3-17.8,2.7-26.9c-0.5-6.9-2.1-13.7-5.7-19.8c-5.7-9.5-14.7-13.7-26-13.8c-12.1-0.2-22.2,3.5-29.3,13.2
		c-1.6,2.1-2.5,4.4-2.4,7.1C1235.5,120.8,1235.3,127.5,1235.3,134.3z"/>
	<path d="M1198.6,189c-7.7,0-15.2,0-23,0c-1-3.6-1.9-7.3-2.9-11.2c-0.6,0.5-1.2,0.9-1.9,1.4c-4.4,3.5-9.3,6-14.6,8.2
		c-11.4,4.7-23.1,4.7-34.8,1.6c-7.3-2-14.1-5.4-19.3-11c-7.5-8.1-9.2-17.5-6.8-27.7c1.8-7.6,6.5-13.2,13.1-17.5
		c9-5.9,19.1-8.8,29.9-9.4c10.4-0.6,20.9-0.5,31.4-0.7c0.9,0,1.7,0,2.7,0c0-5.3,0.6-10.3-0.9-15.3c-1.9-6.2-6.2-10.5-12.7-12.4
		c-10.3-3.2-20.5-2.8-30.3,1.8c-6.1,2.9-9.2,7.2-10,13.3c-7.1,0-14.2,0-21.8,0c0.3-2,0.5-4,1-5.9c1.4-4.8,4.4-8.7,8.1-12.2
		c9.5-9.1,21.5-12.8,34.5-14c10-0.9,19.9-0.2,29.4,3.1c3,1,6,2.2,8.5,3.9c10.3,6.7,15.8,16,15.8,27.9c0.1,16.3,0,32.6,0,48.8
		c0,8.5,0.6,16.8,4.2,24.8C1198.6,187.2,1198.5,188.1,1198.6,189z M1172.4,136.1c-0.8-0.1-1.3-0.1-1.8-0.1c-7.7,0.1-15.4,0-23.1,0.2
		c-7,0.2-14,1.3-20.4,4.2c-3.8,1.6-7.2,3.8-9,7.4c-5,9.8-0.7,21.5,10.2,24.8c14.5,4.5,27.6,1.6,39-8.2c1.7-1.4,3-3.3,4.4-5
		c0.4-0.5,0.8-1.1,0.8-1.7C1172.5,150.6,1172.4,143.5,1172.4,136.1z"/>
	<path d="M968.9,139.7c-28.6,0-56.9,0-85.4,0c0.6,10.7,4.2,19.6,12.4,27.2c11.8,11,35.7,11.1,48.2,2.5c3.6-2.5,6.8-5.6,10.3-8.5
		c4.2,2.8,8.6,5.7,13.3,8.8c-2.1,2.3-3.9,4.4-5.9,6.2c-5.9,5.5-13,9.1-20.8,11.8c-12.8,4.4-25.9,4.5-38.8,1.2
		c-12.2-3.1-23-9-30.3-19.1c-6.3-8.6-9.6-18.2-10-28.6c-0.3-8.6-0.2-17.2,2.5-25.6c3.2-10.1,8.8-18.6,17.2-25.6
		c11.4-9.4,24.7-12.8,39.5-12.2c10.5,0.4,20.4,2.8,28.7,9c8,6,13.4,13.8,16.2,23.2C968.9,119.7,969.2,129.5,968.9,139.7z M947.6,124
		c-0.6-3.5-1-6.7-1.8-9.8c-2.4-9.6-8.1-16.8-18.4-19.6c-15.2-4.2-32.2,0.6-39.4,16.5c-1.9,4.1-3.2,8.3-3.8,12.9
		C905.3,124,926.1,124,947.6,124z"/>
	<path d="M585,118.1c-6.8,0-13.5,0-20.1,0c-0.6-2.3-1.1-4.5-1.8-6.7c-2.8-7.8-8.5-13-16.7-15.5c-11.8-3.5-23.1-2.8-33.2,4.7
		c-6.6,4.9-9.8,11.8-11.3,19.3c-2.4,11.5-2.5,23.2,1.1,34.5c3.6,11.2,11.1,19.1,23.9,21.3c6.5,1.1,12.9,1,19.2-1
		c10-3.1,16.5-9.3,18.7-19.3c6.7,0,13.4,0,20.3,0c-0.1,4.1-1.5,7.9-3.3,11.5c-4.8,9.5-13.2,15.4-22.9,19.8
		c-14.5,6.7-29.6,6.7-44.5,2.1c-10.9-3.4-20.3-9.5-26.5-19.1c-5-7.7-8-16.1-8.8-25.2c-0.9-10.5-0.7-21,2.6-31.3
		c2.9-9,8-16.5,15.5-22.8c9.4-7.9,20.6-11.2,32.9-11.9c11.2-0.6,22.2,0.7,32.2,5.8c13.3,6.9,21.2,17.4,22.7,31.8
		C585.1,116.9,585,117.4,585,118.1z"/>
	<path d="M746.3,173.9c0,5.4,0,10.6,0,15.9c-34.3,0-68.6,0-103,0c0-49.6,0-99.1,0-148.7c7.4,0,14.8,0,22.4,0c0,44.2,0,88.4,0,132.9
		C692.6,173.9,719.4,173.9,746.3,173.9z"/>
	<path d="M984.1,188.9c0-49.7,0-99.2,0-148.8c7.5,0,14.9,0,22.5,0c0,44.3,0,88.5,0,132.9c26.9,0,53.5,0,80.3,0c0,5.4,0,10.6,0,15.9
		C1052.7,188.9,1018.5,188.9,984.1,188.9z"/>
	<path d="M817.2,79.7c0.2-3.3,0.3-6.4,0.6-9.5c0.9-7.7,4.1-14.2,9.8-19.9c6.3-6.3,14.3-8.6,22.9-9.8c7.7-1,15.5-0.6,23.3,1.2
		c-0.4,5-0.8,10-1.1,15.1c-3-0.2-5.8-0.6-8.6-0.7c-3.2,0-6.4-0.1-9.5,0.5c-9.2,1.7-14.5,7.5-15.3,16.4c-0.2,2.1,0,4.2,0,6.5
		c7,0,14,0,21,0c0,5,0,9.7,0,14.7c-7,0-14,0-21.2,0c0,31.7,0,63.1,0,94.7c-7.3,0-14.4,0-21.6,0c0-31.5,0-62.9,0-94.6
		c-6.7,0-13.2,0-19.9,0c0-5,0-9.7,0-14.7C804.1,79.7,810.6,79.7,817.2,79.7z"/>
	<path d="M783.3,189c-7.2,0-14.2,0-21.4,0c0-36.4,0-72.7,0-109.2c7,0,14.1,0,21.4,0C783.3,116.1,783.3,152.5,783.3,189z"/>
	<path d="M623.2,189.8c-7.2,0-14.2,0-21.4,0c0-36.4,0-72.7,0-109.1c7.1,0,14.2,0,21.4,0C623.2,117,623.2,153.4,623.2,189.8z"/>
	<path d="M785.4,52.5c0,6.7-5.6,12-12.7,12c-7.1,0-12.9-5.5-12.8-12.2c0.1-7.1,5.6-12.3,12.9-12.3C780,40,785.4,45.4,785.4,52.5z"/>
	<path d="M625.2,53.3c0,6.7-5.6,12-12.7,12c-7.2,0-12.9-5.4-12.8-12.1c0.1-7,5.6-12.4,12.8-12.3C619.8,40.9,625.2,46.2,625.2,53.3z"
		/>
	<path class="st3" d="M1235.3,134.3c0-6.8,0.1-13.5-0.1-20.3c-0.1-2.7,0.8-5,2.4-7.1c7.1-9.7,17.3-13.4,29.3-13.2
		c11.3,0.2,20.3,4.4,26,13.8c3.6,6.1,5.2,12.8,5.7,19.8c0.6,9.1,0.4,18.1-2.7,26.9c-1.7,4.9-4.5,9.1-8.2,12.8
		c-4.7,4.7-10.5,7-17.1,7.7c-7.5,0.7-14.7,0-21.4-3.4c-5.9-3-10.2-7.6-13.6-13c-0.4-0.6-0.4-1.5-0.4-2.2
		C1235.3,148.8,1235.3,141.6,1235.3,134.3z"/>
	<path class="st3" d="M1172.4,136.1c0,7.4,0,14.5,0,21.7c0,0.6-0.4,1.2-0.8,1.7c-1.4,1.7-2.8,3.5-4.4,5c-11.3,9.8-24.4,12.7-39,8.2
		c-10.9-3.4-15.3-15.1-10.2-24.8c1.9-3.6,5.3-5.8,9-7.4c6.5-2.8,13.4-3.9,20.4-4.2c7.7-0.3,15.4-0.2,23.1-0.2
		C1171.1,136,1171.7,136.1,1172.4,136.1z"/>
	<path class="st3" d="M947.6,124c-21.5,0-42.3,0-63.3,0c0.6-4.6,1.9-8.8,3.8-12.9c7.2-15.9,24.2-20.7,39.4-16.5
		c10.3,2.8,16,10,18.4,19.6C946.6,117.3,947,120.6,947.6,124z"/>
</g>
</svg>
