<svg id="Layer_1" data-name="Layer 1" xmlns="http://www.w3.org/2000/svg" viewBox="0 0 538.82 290.95"><defs><style>.cls-1{fill:#041c39;stroke:#000;stroke-linecap:round;stroke-width:0.71px;fill-rule:evenodd;}.cls-2{fill:#77577e;}.cls-3{fill:#fff;}</style></defs><g id="svg_15" data-name="svg 15"><path id="svg_10" data-name="svg 10" class="cls-1" d="M96.37,14.15l-2.8,4.5a5.5,5.5,0,0,1-.7.9,3.57,3.57,0,0,1-2.3.8,7.26,7.26,0,0,1-3.9-1.8c-.6-.5-1.3-.9-1.9-1.4a25.16,25.16,0,0,0-2.4-1.5l-2.1-1.2a58.51,58.51,0,0,0-10.1-4.1,39,39,0,0,0-5.7-1.3,54.81,54.81,0,0,0-6.1-.6c-1,0-2.1-.1-3.1-.1a49.39,49.39,0,0,0-15.6,2.2,41.93,41.93,0,0,0-6.9,2.9,35.2,35.2,0,0,0-4.5,3,26.08,26.08,0,0,0-6.9,8.7A23.34,23.34,0,0,0,19,35.55a28.25,28.25,0,0,0,.5,5,16,16,0,0,0,2.1,5.4c.3.5.6.9.9,1.4a30,30,0,0,0,8.4,7.4c.3.2.6.3.9.5a68.46,68.46,0,0,0,8.7,4c1.5.5,2.9,1,4.4,1.5,4.9,1.5,9.9,2.9,15.1,4.4s10.2,3,15.1,4.8A67.84,67.84,0,0,1,86,75.05c.8.5,1.5.9,2.2,1.4a33,33,0,0,1,9.3,9.7,22.14,22.14,0,0,1,2.6,6.2,29.86,29.86,0,0,1,.9,6.2v1.9a40.48,40.48,0,0,1-3,15.3c-.2.4-.3.8-.5,1.2a39.26,39.26,0,0,1-10.2,13.5,47,47,0,0,1-12.6,7.6c-1.3.5-2.5,1-3.8,1.4a64.79,64.79,0,0,1-12.5,2.8,62.43,62.43,0,0,1-9.7.5,96.49,96.49,0,0,1-13.2-.9,59,59,0,0,1-14.6-4,64.55,64.55,0,0,1-20.4-13.4l3.2-4.3a3.92,3.92,0,0,1,1-.8,4.18,4.18,0,0,1,2.3-.7,1.7,1.7,0,0,1,.7.1,6.78,6.78,0,0,1,2,1.1c1.1.8,2.4,1.8,3.9,2.9l2.2,1.6c.8.5,1.6,1.1,2.5,1.6l.9.6c1.3.8,2.6,1.5,4,2.2,1.2.6,2.3,1.1,3.5,1.6,1.6.6,3.2,1.2,4.9,1.7a43.7,43.7,0,0,0,4.9,1.2,59.91,59.91,0,0,0,12.6,1.2,54.32,54.32,0,0,0,17.3-2.5,46.32,46.32,0,0,0,8.2-3.6,38.83,38.83,0,0,0,4.7-3.2,28.48,28.48,0,0,0,8-10.3,31,31,0,0,0,2.8-12.2v-.5a30.52,30.52,0,0,0-.5-5.2,19.29,19.29,0,0,0-3-7,27,27,0,0,0-9.3-8,67.9,67.9,0,0,0-8.7-3.9c-1.5-.5-2.9-1-4.4-1.5-4.9-1.4-9.9-2.9-15.1-4.2s-10.2-2.9-15.1-4.6a51.9,51.9,0,0,1-13.1-6.6,31.23,31.23,0,0,1-9.3-9.9h0a29.59,29.59,0,0,1-3.5-14.9,30.34,30.34,0,0,1,3.1-13.5,34.35,34.35,0,0,1,9.1-11.5,46.65,46.65,0,0,1,9.6-5.9c1.7-.8,3.5-1.5,5.2-2.1A55.24,55.24,0,0,1,46.47.85a84.91,84.91,0,0,1,8.8-.5,70,70,0,0,1,22.8,3.5,51.35,51.35,0,0,1,18.3,10.3Z"/><path id="svg_11" data-name="svg 11" class="cls-1" d="M215.07,88.35h-83v1.9a75.73,75.73,0,0,0,.6,9.5,50.45,50.45,0,0,0,2.4,10,38.45,38.45,0,0,0,3.6,7.7,37.49,37.49,0,0,0,4.9,6.4,35.31,35.31,0,0,0,13.4,8.5,47.51,47.51,0,0,0,12,2.6,52.53,52.53,0,0,0,5.6.3,67.37,67.37,0,0,0,13.4-1.2,7.49,7.49,0,0,0,1.6-.4,70,70,0,0,0,10.7-3.6c.9-.4,1.9-.9,2.8-1.3a21.82,21.82,0,0,0,2.2-1.2c.6-.4,1.3-.7,1.9-1.1a9.1,9.1,0,0,1,3.5-1.6h.2a3.4,3.4,0,0,1,1,.1,4.11,4.11,0,0,1,1.3.8l3,3.2a29,29,0,0,1-7.3,5.5,49.54,49.54,0,0,1-7.4,3.4c-.9.3-1.8.7-2.7,1a76.17,76.17,0,0,1-9.4,2.4c-.9.2-1.7.3-2.6.5a80.24,80.24,0,0,1-12.9,1.1,73.92,73.92,0,0,1-13.3-1.2,55.13,55.13,0,0,1-8.2-2.3,44.63,44.63,0,0,1-16.6-10.2,42.27,42.27,0,0,1-8-10.6,61.08,61.08,0,0,1-2.7-5.8,47.79,47.79,0,0,1-2.9-11.1,69.1,69.1,0,0,1-.8-11.1,54,54,0,0,1,3.5-19.5,41.53,41.53,0,0,1,10.2-15.4,46.4,46.4,0,0,1,16.3-10.1,57.79,57.79,0,0,1,13.8-3.2,73.22,73.22,0,0,1,8.1-.4,54.34,54.34,0,0,1,12.7,1.4,46.08,46.08,0,0,1,5.3,1.5,41.39,41.39,0,0,1,14.3,8.3,33.69,33.69,0,0,1,7.3,9.2,34.18,34.18,0,0,1,2.1,4.3,40.37,40.37,0,0,1,2.7,9.6,51.39,51.39,0,0,1,.7,8.8,4.68,4.68,0,0,1-.8,3,2.38,2.38,0,0,1-1.1.6,1.82,1.82,0,0,0-1.4-.3Zm-82.5-6.1h75.7a37.45,37.45,0,0,0-2.5-14.2,33.27,33.27,0,0,0-3.5-6.4,36.22,36.22,0,0,0-3.6-4.2,32.64,32.64,0,0,0-11.1-6.7,40.13,40.13,0,0,0-10.4-2.2c-1.3-.1-2.6-.2-4-.2a63.6,63.6,0,0,0-8.7.6,59.53,59.53,0,0,0-7.3,1.7,35.37,35.37,0,0,0-12.2,6.8,33.93,33.93,0,0,0-7.3,8.8,17.38,17.38,0,0,0-1,1.9,40.38,40.38,0,0,0-3.2,8.8c-.4,1.9-.7,3.6-.9,5.3Z"/><path id="svg_12" data-name="svg 12" class="cls-1" d="M258.77,141.25h-11V43.15h5.8a4.91,4.91,0,0,1,2.7.6l.1.1a3.17,3.17,0,0,1,1,2.4l.9,20.7a52.46,52.46,0,0,1,5.5-9.4,41,41,0,0,1,9.3-9.3h0a36.3,36.3,0,0,1,18.6-6.6c1.4-.1,2.7-.2,4.1-.2a52.53,52.53,0,0,1,5.6.3c1.3.1,2.7.4,4,.6a38.4,38.4,0,0,1,8.3,2.7l-1.5,6.5a4.88,4.88,0,0,1-.3.7,2,2,0,0,1-1.3.8c-.2,0-.4.1-.7.1a6.13,6.13,0,0,1-1.6-.3c-.1,0-.3-.1-.4-.1a26.91,26.91,0,0,0-3.2-.9h0c-.5-.1-1-.3-1.6-.4s-1.2-.2-1.9-.3c-.4-.1-.8-.1-1.3-.2a49.81,49.81,0,0,0-5.9-.4h-.5a43.76,43.76,0,0,0-10.2,1.2,27.7,27.7,0,0,0-11.2,5.7,41.22,41.22,0,0,0-6.7,7.2,60.76,60.76,0,0,0-6.9,12.7l.3,63.9Z"/><path id="svg_13" data-name="svg 13" class="cls-1" d="M430.27,43.15l-48.5,98.1h-9.7l-48.5-98.1h8.7a4.1,4.1,0,0,1,1.1.1,3.39,3.39,0,0,1,1.5.6,6.47,6.47,0,0,1,.9.8,2.18,2.18,0,0,1,.5.8l37.9,77.4a18.89,18.89,0,0,1,1.1,2.5c.2.6.4,1.2.6,1.9l1.2,4.1,1.2-4.2a29.44,29.44,0,0,1,1.7-4.3l38.1-77.4a3.59,3.59,0,0,1,.7-1,2.7,2.7,0,0,1,.8-.7,3.85,3.85,0,0,1,1.8-.6h8.9Z"/><path id="svg_14" data-name="svg 14" class="cls-1" d="M535.17,88.35h-83v1.9a75.73,75.73,0,0,0,.6,9.5,50.45,50.45,0,0,0,2.4,10,38.45,38.45,0,0,0,3.6,7.7,37.49,37.49,0,0,0,4.9,6.4,35.31,35.31,0,0,0,13.4,8.5,47.51,47.51,0,0,0,12,2.6,52.53,52.53,0,0,0,5.6.3,67.37,67.37,0,0,0,13.4-1.2,7.49,7.49,0,0,0,1.6-.4,70,70,0,0,0,10.7-3.6c.9-.4,1.9-.9,2.8-1.3a21.82,21.82,0,0,0,2.2-1.2c.6-.4,1.3-.7,1.9-1.1a9.1,9.1,0,0,1,3.5-1.6h.2a3.4,3.4,0,0,1,1,.1,4.11,4.11,0,0,1,1.3.8l3,3.2a29,29,0,0,1-7.3,5.5,49.54,49.54,0,0,1-7.4,3.4c-.9.3-1.8.7-2.7,1a76.17,76.17,0,0,1-9.4,2.4c-.9.2-1.7.3-2.6.5a80.24,80.24,0,0,1-12.9,1.1,73.92,73.92,0,0,1-13.3-1.2,55.13,55.13,0,0,1-8.2-2.3,44.63,44.63,0,0,1-16.6-10.2,42.27,42.27,0,0,1-8-10.6,61.08,61.08,0,0,1-2.7-5.8,47.79,47.79,0,0,1-2.9-11.1,69.1,69.1,0,0,1-.8-11.1,54,54,0,0,1,3.5-19.5,41.53,41.53,0,0,1,10.2-15.4,46.4,46.4,0,0,1,16.3-10.1,57.79,57.79,0,0,1,13.8-3.2,73.22,73.22,0,0,1,8.1-.4,54.34,54.34,0,0,1,12.7,1.4,46.08,46.08,0,0,1,5.3,1.5,41.39,41.39,0,0,1,14.3,8.3,33.69,33.69,0,0,1,7.3,9.2,34.18,34.18,0,0,1,2.1,4.3,40.37,40.37,0,0,1,2.7,9.6,51.39,51.39,0,0,1,.7,8.8,4.68,4.68,0,0,1-.8,3,2.38,2.38,0,0,1-1.1.6,2,2,0,0,0-1.4-.3Zm-82.6-6.1h75.7a37.45,37.45,0,0,0-2.5-14.2,33.27,33.27,0,0,0-3.5-6.4,36.22,36.22,0,0,0-3.6-4.2,32.64,32.64,0,0,0-11.1-6.7,40.13,40.13,0,0,0-10.4-2.2c-1.3-.1-2.6-.2-4-.2a63.6,63.6,0,0,0-8.7.6,59.53,59.53,0,0,0-7.3,1.7,35.37,35.37,0,0,0-12.2,6.8,33.93,33.93,0,0,0-7.3,8.8,17.38,17.38,0,0,0-1,1.9,40.38,40.38,0,0,0-3.2,8.8c-.3,1.9-.7,3.6-.9,5.3Z"/></g><path class="cls-2" d="M495.57,217v25.4c0,26.9-25.5,48.6-57,48.6H122.77c-31.5,0-57-21.8-57-48.6V217c0-26.9,25.5-48.6,57-48.6h315.8C470.07,168.35,495.57,190.05,495.57,217Z"/><path class="cls-3" d="M127.67,190.45h32.5c19.7,0,35,4.1,35,18,0,6.5-4.8,13.5-12.5,15.7v.4c9.7,1.9,17.2,7.4,17.2,17.1,0,14.8-16.3,21.4-37,21.4h-35.2Zm31.5,29.2c10.4,0,15-3.4,15-8.7,0-5.6-4.9-7.8-14.9-7.8h-10.2v16.4h10.1Zm2,30.8c11.7,0,17.8-3.2,17.8-9.8,0-6.4-5.9-9-17.8-9h-12v18.8Z"/><path class="cls-3" d="M215.87,190.45h59.5v13.8h-38.1v14.6h32.4v13.8h-32.4v16.7h39.5v13.8h-61l.1-72.7Z"/><path class="cls-3" d="M314.37,204.25h-26.2v-13.8H362v13.8h-26.2v58.9h-21.5l.1-58.9Z"/><path class="cls-3" d="M394.47,190.45h25.7l29.8,72.7h-22.7l-12.4-36.8c-2.6-7.3-5.2-15.9-7.7-23.4h-.6c-2.3,7.7-4.8,16.2-7.5,23.4l-12.5,36.8h-22Zm-10.1,42.6h45.7v12.8h-45.7Z"/></svg>