<svg id="Layer_1" data-name="Layer 1" xmlns="http://www.w3.org/2000/svg" viewBox="0 0 797.97 87.22"><defs><style>.cls-1{fill:#a7c947;}.cls-2{font-size:61px;font-family:Lato-Regular, Lato;}.cls-3{letter-spacing:-0.01em;}.cls-4{letter-spacing:-0.01em;}.cls-5{letter-spacing:0em;}.cls-6{letter-spacing:-0.02em;}</style></defs><path d="M251.05,70.7V41.63h-5.9V37.2h5.9v-1a12.5,12.5,0,0,1,.85-4.78,9.42,9.42,0,0,1,2.43-3.51,10.41,10.41,0,0,1,3.87-2.15,17,17,0,0,1,5.14-.73,18.69,18.69,0,0,1,4.39.53l-.35,4.64c-.48-.08-1-.15-1.64-.2s-1.21-.08-1.81-.08a6.63,6.63,0,0,0-4.8,1.63,6.15,6.15,0,0,0-1.69,4.66v1h6.3v4.43h-6.3V70.71h-6.39Z"/><path d="M141.11,59.58a6.81,6.81,0,0,0-.54-2.79,5.71,5.71,0,0,0-1.9-2.21A15.82,15.82,0,0,0,135,52.69a57.74,57.74,0,0,0-5.87-1.81,54.18,54.18,0,0,1-6.75-2.18,22.6,22.6,0,0,1-5.14-2.82A11.62,11.62,0,0,1,114,42.24a9.42,9.42,0,0,1-1.14-4.67,10,10,0,0,1,1.23-4.88,11.88,11.88,0,0,1,3.47-3.9,17.08,17.08,0,0,1,5.39-2.58,24.63,24.63,0,0,1,7-.93,22.92,22.92,0,0,1,7.56,1.15,17.49,17.49,0,0,1,5.58,3,12.89,12.89,0,0,1,3.44,4.36,11.82,11.82,0,0,1,1.17,5.11H141a9,9,0,0,0-.67-3.5,7.44,7.44,0,0,0-2-2.79,9.93,9.93,0,0,0-3.45-1.83,16.57,16.57,0,0,0-4.9-.65,17.21,17.21,0,0,0-4.63.56,9.71,9.71,0,0,0-3.25,1.53,6.24,6.24,0,0,0-1.9,2.31,6.87,6.87,0,0,0-.62,2.91,5.11,5.11,0,0,0,.67,2.6,6.88,6.88,0,0,0,2.09,2.17A16.63,16.63,0,0,0,126,44.07a49.23,49.23,0,0,0,5.33,1.61,51,51,0,0,1,7.39,2.4,20.65,20.65,0,0,1,5.13,3,10.33,10.33,0,0,1,4,8.46,10,10,0,0,1-1.24,5A11.25,11.25,0,0,1,143,68.32a17.69,17.69,0,0,1-5.52,2.43,29.57,29.57,0,0,1-11.83.46,25,25,0,0,1-4.44-1.16,20.86,20.86,0,0,1-3.94-1.92,14.62,14.62,0,0,1-3.16-2.66A11.66,11.66,0,0,1,112,62.06a11,11,0,0,1-.76-4.15h6.66a7.46,7.46,0,0,0,1,4,8.5,8.5,0,0,0,2.73,2.74,12.53,12.53,0,0,0,3.94,1.59,20.85,20.85,0,0,0,4.68.51q5.25,0,8-1.92A6,6,0,0,0,141.11,59.58Z"/><path d="M167.42,66.91a10.37,10.37,0,0,0,3.25-.5,9.36,9.36,0,0,0,2.74-1.36A7.26,7.26,0,0,0,175.34,63a6,6,0,0,0,.88-2.58h6a9.29,9.29,0,0,1-1.36,4.26,12.8,12.8,0,0,1-3.23,3.56A16.52,16.52,0,0,1,173,70.68a17,17,0,0,1-5.61.91,18.42,18.42,0,0,1-7.34-1.35,14.71,14.71,0,0,1-5.2-3.64,15,15,0,0,1-3.09-5.32,20,20,0,0,1-1-6.41v-1.3a20,20,0,0,1,1-6.41,14.56,14.56,0,0,1,8.27-9,20.08,20.08,0,0,1,13.28-.42A14.79,14.79,0,0,1,178,40.33,11.86,11.86,0,0,1,181,44.18a12.1,12.1,0,0,1,1.24,4.8h-6a7.88,7.88,0,0,0-.81-2.89,7.67,7.67,0,0,0-1.81-2.35,8.54,8.54,0,0,0-2.71-1.59,10,10,0,0,0-3.5-.59,10.3,10.3,0,0,0-4.92,1,8.88,8.88,0,0,0-3.14,2.77,11,11,0,0,0-1.67,3.87,19.72,19.72,0,0,0-.48,4.32v1.3a20,20,0,0,0,.48,4.38,10.75,10.75,0,0,0,1.66,3.85,8.78,8.78,0,0,0,3.14,2.76A10.35,10.35,0,0,0,167.42,66.91Z"/><path d="M206.16,66.11H230V71H199.49V25.28h6.66V66.11Z"/><path d="M281.32,71.32a19.51,19.51,0,0,1-7.06-1.21,15.79,15.79,0,0,1-5.4-3.36,14.48,14.48,0,0,1-3.45-5.12,17,17,0,0,1-1.21-6.5v-1.3a18.61,18.61,0,0,1,1.36-7.31,16.2,16.2,0,0,1,3.64-5.42,15.91,15.91,0,0,1,5.21-3.36,16.54,16.54,0,0,1,6.11-1.16,17.48,17.48,0,0,1,6.91,1.25,13,13,0,0,1,4.78,3.45,14.23,14.23,0,0,1,2.78,5.2,22.65,22.65,0,0,1,.9,6.53v2.57H270.58a13,13,0,0,0,.85,4.33,10.32,10.32,0,0,0,2.21,3.5,10.5,10.5,0,0,0,3.45,2.35,11.46,11.46,0,0,0,4.57.87,12.07,12.07,0,0,0,5.73-1.24,14.14,14.14,0,0,0,4.11-3.28l3.9,2.72a15.08,15.08,0,0,1-2.18,2.4,14.51,14.51,0,0,1-3,2.07,17.19,17.19,0,0,1-3.92,1.46A19.87,19.87,0,0,1,281.32,71.32Zm-.79-30a9.76,9.76,0,0,0-3.56.63,8.94,8.94,0,0,0-2.9,1.84,9.82,9.82,0,0,0-2.12,3,14.2,14.2,0,0,0-1.16,4.12H289.5v-.43a14.59,14.59,0,0,0-.6-3.31,8.65,8.65,0,0,0-1.55-2.94,7.86,7.86,0,0,0-2.71-2.11A9.5,9.5,0,0,0,280.53,41.29Z"/><path d="M307,65.84h23.82V70.7H300.37V25H307V65.84Z"/><path d="M357.15,70.7a5.76,5.76,0,0,1-.55-1.56c-.14-.63-.25-1.28-.35-2a15.76,15.76,0,0,1-2,1.59,14.73,14.73,0,0,1-2.45,1.33,15.63,15.63,0,0,1-2.88.9,15.8,15.8,0,0,1-3.28.32,16.65,16.65,0,0,1-5.2-.77,12.5,12.5,0,0,1-4-2.11,9.45,9.45,0,0,1-2.54-3.14,8.61,8.61,0,0,1-.9-3.88,9.42,9.42,0,0,1,1.17-4.75,9.82,9.82,0,0,1,3.37-3.45,16.93,16.93,0,0,1,5.3-2.11,31.44,31.44,0,0,1,6.94-.71h6.35V47.76a6.08,6.08,0,0,0-2-4.78c-1.34-1.19-3.3-1.78-5.9-1.78a11.63,11.63,0,0,0-3.28.43,8.89,8.89,0,0,0-2.54,1.16,5.71,5.71,0,0,0-1.64,1.69,3.81,3.81,0,0,0-.59,2h-6.42a6.9,6.9,0,0,1,1.05-3.56,10.75,10.75,0,0,1,3-3.17,16.47,16.47,0,0,1,4.68-2.29,19.9,19.9,0,0,1,6.13-.88,21.13,21.13,0,0,1,5.61.7,12.42,12.42,0,0,1,4.4,2.11,9.9,9.9,0,0,1,2.87,3.51,11,11,0,0,1,1,4.92V63.4a20.64,20.64,0,0,0,.33,3.58,12.56,12.56,0,0,0,1,3.23v.5h-6.7Zm-10.6-4.37a11.82,11.82,0,0,0,3.25-.43,13.18,13.18,0,0,0,2.76-1.13,10.24,10.24,0,0,0,2.16-1.59,7.73,7.73,0,0,0,1.43-1.86V54.45h-5.32q-5.49,0-8.46,1.53a4.93,4.93,0,0,0-3,4.63,5.66,5.66,0,0,0,.45,2.26,4.71,4.71,0,0,0,1.36,1.81,7,7,0,0,0,2.24,1.21A9.79,9.79,0,0,0,346.55,66.33Z"/><path d="M400,54.32a22.55,22.55,0,0,1-1,6.79,15.84,15.84,0,0,1-2.83,5.39A12.78,12.78,0,0,1,391.64,70a14.2,14.2,0,0,1-6.15,1.27,16.17,16.17,0,0,1-6.39-1.16,12.33,12.33,0,0,1-4.56-3.33l-.31,3.87h-5.87V25h6.39V40.89a12.53,12.53,0,0,1,4.49-3.19,15.79,15.79,0,0,1,6.18-1.11,14.77,14.77,0,0,1,6.23,1.24,12.68,12.68,0,0,1,4.56,3.48A15.52,15.52,0,0,1,399,46.7a23.79,23.79,0,0,1,1,7v.64Zm-6.39-.65a20.38,20.38,0,0,0-.52-4.72,11.27,11.27,0,0,0-1.67-3.88,8.33,8.33,0,0,0-3-2.65,9.73,9.73,0,0,0-4.56-1,11.63,11.63,0,0,0-3.18.4A9.92,9.92,0,0,0,378.12,43a8.78,8.78,0,0,0-1.95,1.67,11.69,11.69,0,0,0-1.42,2.07V61.18a11.44,11.44,0,0,0,1.47,2.07,8.85,8.85,0,0,0,2,1.67A9.44,9.44,0,0,0,380.73,66a11.53,11.53,0,0,0,3.18.4,9.4,9.4,0,0,0,4.42-1,8.48,8.48,0,0,0,3-2.6A11.3,11.3,0,0,0,393.06,59a19.39,19.39,0,0,0,.55-4.72Z"/><path d="M193.59,71H187.2V37.47h6.39Z"/><circle cx="190.39" cy="29.04" r="3.76"/><circle cx="237.8" cy="28.77" r="3.76"/><path d="M241,70.7h-6.39V37.21H241Z"/><path class="cls-1" d="M54.74,49a10.55,10.55,0,0,0,1-4.47,10.28,10.28,0,0,0-.49-3h0c0-.08-.05-.16-.08-.24l0-.09c0-.05,0-.1-.05-.15l0-.07c-.62-2-2.09-3.78-3.79-5.86-2.09-2.55-4.45-5.43-5.68-9.32s-.91-7.3-.66-10.4c.22-2.65.42-5.16-.31-7.47h0s0,0,0-.06,0-.1,0-.15l0-.07c0-.08,0-.16-.07-.25s-.11-.34-.17-.5l0-.07c0-.14-.11-.28-.17-.42v0A10.48,10.48,0,0,0,32.33.22h0l-.46.11h-.06a4.91,4.91,0,0,0-.51.15,10.34,10.34,0,0,0-6.13,5.15,8.94,8.94,0,0,0-.43,1,10.38,10.38,0,0,0-.26,7h0c0,.08.05.16.08.24l0,.08,0,.05,0,.07,0,0,0,.05c.61,2,2.08,3.77,3.79,5.85,2.09,2.55,4.45,5.44,5.68,9.33s1,7.65.71,11c-.2,2.67-.37,5,.25,6.91h0s0,0,0,.06,0,.1,0,.15l0,.08c0,.08.05.16.07.25s.09.28.14.41a10.46,10.46,0,0,0,13,6.41,10.34,10.34,0,0,0,6.13-5.15Z"/><path class="cls-1" d="M86.16,22.66a12.41,12.41,0,0,0-22.58,4l-.06.3,0,.1c0,.07,0,.14,0,.21h0a.09.09,0,0,1,0,.05h0c-.54,2.39-.09,5.11.42,8.26.63,3.88,1.35,8.27.3,13s-3.57,8.46-5.79,11.73c-1.79,2.63-3.33,4.9-3.84,7.26h0s0,0,0,.06,0,.12-.05.18l0,.1c0,.1,0,.2-.07.3a12.41,12.41,0,0,0,9.43,14.8,12.5,12.5,0,0,0,2.71.3,12.3,12.3,0,0,0,6.65-1.95,13,13,0,0,0,1.93-1.51,12.31,12.31,0,0,0,3.52-6.27h0l.06-.29,0-.1c0-.07,0-.14,0-.21h0a.43.43,0,0,1,0-.05h0c.54-2.4.09-5.12-.42-8.28-.63-3.87-1.35-8.26-.3-13s3.41-8.08,5.52-11.12c1.8-2.6,3.5-5.06,4.12-7.86,0,0,0,0,0,0s0,0,0-.06,0-.12,0-.18l0-.1c0-.1,0-.2.07-.3A12.46,12.46,0,0,0,86.16,22.66Z"/><path class="cls-1" d="M16.32,27.07a11.16,11.16,0,0,0-15,4.76,11.17,11.17,0,0,0,9.9,16.31,11.16,11.16,0,0,0,5.15-21.07Z"/><text class="cls-2" transform="translate(425.99 70.84)"><tspan class="cls-3">D</tspan><tspan class="cls-4" x="45.6" y="0">a</tspan><tspan x="75.52" y="0">ta </tspan><tspan class="cls-5" x="143.32" y="0">P</tspan><tspan x="179.77" y="0">l</tspan><tspan class="cls-4" x="194.16" y="0">a</tspan><tspan class="cls-6" x="224.08" y="0">tf</tspan><tspan x="265.02" y="0">orm</tspan></text></svg>